<?xml version="1.0" encoding="utf-8"?>
<!DOCTYPE svg PUBLIC "-//W3C//DTD SVG 1.0//EN" "http://www.w3.org/TR/2001/REC-SVG-20010904/DTD/svg10.dtd">
<svg version="1.0" xmlns="http://www.w3.org/2000/svg" width="1920px" height="1080px" viewBox="0 0 1920 1080" preserveAspectRatio="xMidYMid meet">
 <g fill="#ffffff">
 </g>
 <g fill="#f7f7f7">
 </g>
 <g fill="#efefef">
  <path d="M950.5 974.4 c-54.1 -2.3 -86.1 -6.8 -120.5 -16.8 -53.6 -15.6 -100.5 -39.3 -147.8 -74.8 -11.1 -8.3 -18.4 -13.1 -20.5 -13.5 -1.9 -0.3 -7.1 0.6 -12.9 2.1 -14.6 4 -28.8 5.5 -63.1 6.6 -17.1 0.5 -138.6 1.3 -269.9 1.7 l-238.8 0.6 0 -354.1 0 -354.1 107.8 0.4 c59.2 0.3 166.9 0.7 239.2 1 136.7 0.6 171.3 1.3 191.5 4 17.9 2.4 39.1 6.9 56.7 12.1 l15.7 4.7 15.3 -10 c19.9 -13.1 26.5 -17 40.6 -24.6 47.7 -25.7 97.2 -41.3 153.2 -48.2 17.6 -2.2 61.3 -3 84.5 -1.6 23.9 1.5 37.5 3.3 59 7.6 56 11.3 103.7 31.7 156.7 67 13.3 8.8 10.2 8.4 28 3.2 11.7 -3.5 30.5 -7.4 46.8 -9.8 21.4 -3.1 54.2 -3.8 197 -4.4 73.4 -0.3 181.5 -0.7 240.3 -1 l106.7 -0.4 0 353.9 0 354 -153.2 -0.1 c-189.8 0 -365.9 -1.4 -382.8 -2.9 -6.9 -0.6 -19 -2.4 -27 -4 -13 -2.5 -14.8 -2.7 -17.8 -1.4 -1.9 0.7 -11.1 7.6 -20.5 15.2 -19.7 15.8 -31.4 24.1 -48 34.1 -45.6 27.5 -98.3 45.1 -154.7 51.5 -13.6 1.6 -46.8 2.6 -61.5 2z m49.5 -125.8 c15.3 -2.1 25.3 -4.2 39 -8.2 28.1 -8.1 68 -26.8 68 -31.8 0 -0.7 -1.7 -2.9 -3.8 -4.7 -2.2 -1.9 -8.2 -7.2 -13.5 -11.8 -9.7 -8.4 -30.6 -30.6 -43.2 -45.6 -12.4 -14.9 -29.9 -42.3 -40.4 -63.3 -15.7 -31.3 -29.7 -78 -34.2 -113.7 -1.8 -14.3 -1.5 -61.2 0.5 -81.2 4.2 -43 19.7 -91.9 41.2 -130.5 15.9 -28.5 31.9 -50 59.7 -80.2 10.7 -11.8 14.3 -16.8 13.2 -18.6 -3.2 -5.1 -46.8 -18.8 -76.3 -24 -24.5 -4.4 -91 -4.8 -116.7 -0.8 -27.3 4.2 -59.3 13.6 -83.7 24.5 l-5.8 2.6 11.3 12.1 c30.3 32.5 46.6 54 62.5 82.6 57.4 103.2 59.1 225.1 4.4 333.6 -18.3 36.4 -40.4 64.9 -78.2 101.3 -9.9 9.5 -18 17.8 -18 18.5 0 2.1 16.4 10.9 35 18.9 27.2 11.5 54.9 18.5 86.5 21.6 14.4 1.5 79 0.5 92.5 -1.3z m-423 -73.2 c2.9 -0.6 3.1 -0.9 2.6 -3.8 -0.4 -1.7 -5.8 -13.5 -12.1 -26.3 -18 -36.3 -27 -60.4 -34.9 -92.5 -9.6 -39.2 -11 -55.3 -10.3 -117.8 0.7 -56 1.7 -65.3 10.2 -100 11.3 -45.6 29.9 -90.2 53 -127.1 9.4 -15 13 -22.2 12.2 -24.3 -0.4 -0.9 -2.4 -2.4 -4.4 -3.3 -3.2 -1.3 -10.6 -1.7 -43.3 -2.4 -48.4 -1 -359.1 -3 -360.2 -2.3 -0.4 0.3 -0.8 113 -0.8 250.5 l0 249.9 192.4 0 c105.8 0 193.8 -0.3 195.6 -0.6z m1126 -249.4 l0 -250 -164.7 0.1 c-194 0 -230.8 0.9 -236.9 5.4 -2.2 1.5 -1.5 3.3 4.6 13 2.8 4.4 5 8.7 5 9.6 0 1.9 -15.3 12.1 -62.5 41.9 -15.9 10 -29.5 18.7 -30.1 19.2 -0.8 0.6 -4.1 -2.7 -10.4 -10.4 -11.7 -14.2 -19 -21.8 -21 -21.8 -2.6 0 -14.9 11 -26.5 23.7 -14.5 15.8 -20 22.8 -28.2 35.8 -18.6 29.2 -30.6 61.1 -36.4 96.5 -3 18.1 -3.2 51.3 -0.5 70 4.9 34.2 16.6 67.5 34.1 97 11 18.5 23.5 33.9 44.2 54.1 13.5 13.2 18.1 16.9 21.1 16.9 2.3 0 8.7 -9.7 18.5 -28 10 -18.8 22.7 -51.1 22.7 -57.9 0 -2.7 -0.2 -2.8 -6.7 -3.4 -3.8 -0.4 -16.1 -0.7 -27.5 -0.7 l-20.8 0 0 -60.5 0 -60.5 95.6 0 95.7 0 -0.7 28.2 c-1.2 49.1 -4.2 74.4 -13.1 109.8 -7.5 29.9 -17.8 57.5 -35.4 95.1 -8.8 18.9 -10.9 24.2 -9.8 25.1 1 0.9 73.4 1.4 219 1.6 l170.7 0.2 0 -250z m-995.5 194.6 c10.2 -8.2 29 -27.4 38.7 -39.7 26 -32.8 42.3 -69.6 49.8 -112.4 2.7 -15.7 3.7 -47.4 2.1 -64 -4.8 -48 -21.8 -91.5 -50.6 -129.5 -8.4 -11.1 -30.8 -34.7 -35 -37 -2.7 -1.4 -2.9 -1.3 -6.8 3 -5.9 6.6 -18 24 -25.3 36.2 -16.2 27.3 -26.6 53.2 -34.9 86.8 -5.8 23.8 -6 26.3 -6 76 l0 45.5 2.7 12.5 c10.2 47.2 25.2 84.4 48.5 120.8 3.4 5.3 5.9 8.2 7.1 8.2 1 0 5.4 -2.9 9.7 -6.4z"/>
 </g>
 <g fill="#e6e6e6">
 </g>
 <g fill="#dedede">
 </g>
 <g fill="#d6d6d6">
 </g>
 <g fill="#cecece">
 </g>
 <g fill="#c5c5c5">
 </g>
 <g fill="#bdbdbd">
 </g>
 <g fill="#b5b5b5">
 </g>
 <g fill="#adadad">
 </g>
 <g fill="#a5a5a5">
 </g>
 <g fill="#9c9c9c">
 </g>
 <g fill="#949494">
 </g>
 <g fill="#8c8c8c">
 </g>
 <g fill="#848484">
 </g>
 <g fill="#7b7b7b">
 </g>
 <g fill="#737373">
 </g>
 <g fill="#6b6b6b">
 </g>
 <g fill="#636363">
 </g>
 <g fill="#5a5a5a">
 </g>
 <g fill="#525252">
 </g>
 <g fill="#4a4a4a">
 </g>
 <g fill="#424242">
 </g>
 <g fill="#3a3a3a">
 </g>
 <g fill="#313131">
 </g>
 <g fill="#292929">
 </g>
 <g fill="#212121">
 </g>
 <g fill="#191919">
 </g>
 <g fill="#101010">
 </g>
 <g fill="#080808">
 </g>
 <g fill="#000000">
 </g>
</svg>